<?xml version="1.0" encoding="UTF-8"?>
<svg width="180px" height="50px" viewBox="0 0 180 50" version="1.1" xmlns="http://www.w3.org/2000/svg" xmlns:xlink="http://www.w3.org/1999/xlink">
    <!-- Generator: sketchtool 51.3 (57544) - http://www.bohemiancoding.com/sketch -->
    <title>6CC16815-8FAB-4545-97C6-4D067E96E31A</title>
    <desc>Created with sketchtool.</desc>
    <defs></defs>
    <g id="Symbols" stroke="none" stroke-width="1" fill="none" fill-rule="evenodd">
        <g id="Logo" fill-rule="nonzero">
            <g id="COMBOMARK" transform="translate(10.000000, 10.000000)">
                <path d="M12.6455,0 L0,7.2493 L0,21.7507 L12.6455,29 L25.291,21.7507 L25.291,7.2493 L12.6455,0 Z M11.9256,20.24 L2.56172,20.24 L7.22398,12.2171 L11.9228,14.9119 L11.9228,20.24 L11.9256,20.24 Z M12.6455,13.6748 L7.94666,10.9801 L12.6483,2.89581 L17.3499,10.9801 L12.6455,13.6748 Z M18.067,12.2199 L22.7292,20.24 L13.3653,20.24 L13.3653,14.9147 L18.067,12.2199 Z M14.0599,2.46577 L23.1257,7.66538 L18.5928,10.2652 L14.0599,2.46577 Z M6.69533,10.2624 L2.16241,7.66259 L11.2311,2.46577 L6.69533,10.2624 Z M5.97546,11.5023 L1.44255,19.3017 L1.44255,8.90246 L5.97546,11.5023 Z M11.9256,21.6725 L11.9256,26.9336 L2.74731,21.6725 L11.9256,21.6725 Z M13.3653,21.6725 L22.5437,21.6725 L13.3653,26.9336 L13.3653,21.6725 Z M19.3155,11.5023 L23.8484,8.90246 L23.8484,19.2989 L19.3155,11.5023 Z" id="Shape" fill="#7295C2"></path>
                <path d="M53.9704,15.5599 L45.0508,15.5599 C45.0508,20.2848 45.1436,22.8595 45.1436,22.8595 C45.1745,23.767 45.4782,24.1021 46.5777,24.3144 L48.1637,24.616 L48.1637,25.8586 L43.1021,25.7078 L38.0405,25.8586 L38.0405,24.616 L39.6265,24.3144 C40.7232,24.1021 41.0606,23.7698 41.0915,22.8595 C41.0915,22.8595 41.1843,20.0111 41.1843,15.0154 C41.1843,10.0196 41.0915,7.3835 41.0915,7.3835 C41.0297,6.41451 40.726,6.11013 39.6265,5.90069 L38.0405,5.5991 L38.0405,4.35645 L43.1021,4.50724 L48.1637,4.35645 L48.1637,5.5991 L46.5777,5.90069 C45.481,6.11292 45.2055,6.41451 45.1436,7.3835 C45.1436,7.3835 45.0508,9.53372 45.0508,14.0771 L53.9704,14.0771 L53.9704,15.5599 Z M55.5114,7.3835 C55.4495,6.41451 55.1767,6.11013 54.0773,5.90069 L52.4913,5.5991 L52.4913,4.35645 L57.5529,4.50724 L62.6144,4.35645 L62.6144,5.5991 L61.0285,5.90069 C59.9318,6.11292 59.6253,6.41451 59.5634,7.3835 C59.5634,7.3835 59.4706,10.0196 59.4706,15.0154 C59.4706,20.0111 59.5634,22.8595 59.5634,22.8595 C59.5944,23.767 59.929,24.1021 61.0285,24.3144 L62.6144,24.616 L62.6144,25.8586 L57.5529,25.7078 L52.4913,25.8586 L52.4913,24.616 L54.0773,24.3144 C55.1739,24.1021 55.4804,23.7698 55.5114,22.8595 L55.5114,7.3835 Z" id="Shape" fill="#303439"></path>
                <path d="M71.7114,18.6539 C70.1592,19.0141 68.0137,19.7513 68.0137,21.558 C68.0137,22.9208 68.8685,23.9512 70.3617,23.9512 C71.5202,23.9512 72.5888,23.1637 72.6197,21.8624 L72.6815,18.3802 L72.6815,17.3498 L72.6815,15.3811 C72.6815,13.3816 72.406,11.7759 70.2098,11.7759 C69.3859,11.7759 68.472,11.896 68.472,12.8064 L68.472,15.5933 L67.2825,16.1685 C66.0621,15.987 64.9345,15.1074 64.9345,13.8061 C64.9345,11.7452 67.7718,10.5947 71.1575,10.5947 C74.3294,10.5947 76.4046,11.9267 76.4046,15.3811 C76.4046,17.5313 76.16,21.1364 76.16,22.5605 C76.16,23.6217 76.6774,24.1048 77.4422,24.1048 C77.8387,24.1048 78.418,23.8926 78.6317,23.6496 L78.9382,24.4064 C78.4489,25.4955 77.0176,26.1629 75.6735,26.1629 C74.0257,26.1629 72.8671,25.2832 72.7153,23.8311 C72.3188,24.7387 71.0084,26.1629 68.7195,26.1629 C66.2477,26.1629 64.479,24.4957 64.479,22.3455 C64.479,19.2263 68.3342,17.9585 71.7142,17.5089 L71.7142,18.6539 L71.7114,18.6539 Z" id="Shape" fill="#303439"></path>
                <path d="M83.2772,23.0099 C83.7046,24.1297 84.6185,24.8864 86.1735,24.8864 C88.0041,24.8864 88.7662,23.7973 88.7662,22.6748 C88.7662,19.1004 81.2329,19.9186 81.2329,15.0122 C81.2329,11.893 83.7946,10.5889 86.6909,10.5889 C88.156,10.5889 90.473,10.8318 91.5107,11.2256 C91.297,12.2867 91.207,13.8896 91.176,15.1322 L89.9556,15.163 L89.1936,12.8312 C89.0108,12.256 88.0041,11.8622 87.0902,11.8622 C85.6871,11.8622 84.5904,12.4068 84.5904,13.8309 C84.5904,17.2238 92.0028,16.4671 92.0028,21.4935 C92.0028,24.582 89.4411,26.157 86.2073,26.157 C83.5246,26.157 81.1738,25.3081 81.1738,25.3081 C81.1738,25.3081 81.2947,22.4318 81.1738,20.9155 L82.5151,20.8541 L83.2772,23.0099 Z" id="Shape" fill="#303439"></path>
                <path d="M99.4488,16.833 L99.4488,23.1636 C99.4488,24.1019 99.6625,24.3755 100.7,24.6185 L101.614,24.8307 L101.614,25.8611 L97.711,25.7103 L93.777,25.8611 L93.777,24.8307 L94.3872,24.6185 C95.4248,24.2554 95.8523,24.1046 95.8523,23.1636 L95.8523,8.01991 C95.8523,5.95905 95.7595,5.20229 94.9974,4.93142 L93.7461,4.47624 L93.7461,3.90099 L98.473,2.83984 L99.4488,2.83984 L99.4488,9.23185 L99.4488,16.833 Z M100.405,11.6194 C101.181,11.1335 102.795,10.5946 103.996,10.5946 C107.199,10.5946 108.936,12.4125 108.936,15.6825 C108.936,18.2572 108.875,23.1636 108.875,23.1636 C108.875,24.1019 109.24,24.3755 110.309,24.6185 L111.194,24.8307 L111.194,25.8611 L107.137,25.7075 L103.051,25.8583 L103.051,24.8279 L103.813,24.6157 C105.154,24.2526 105.306,23.5545 105.306,20.1644 L105.306,17.5283 C105.306,15.1966 105.031,12.6526 102.41,12.6526 C101.847,12.6526 100.776,12.8984 100.405,13.0464 L100.405,11.6194 Z" id="Shape" fill="#303439"></path>
                <path d="M123.052,8.01991 C123.052,5.93113 122.959,5.23301 122.138,4.93142 L120.918,4.47624 L120.918,3.90099 L125.738,2.83984 L126.713,2.83984 C126.713,2.83984 126.652,8.44437 126.652,12.8956 L126.652,22.4962 C126.652,23.3758 126.927,23.8896 127.748,24.0097 L129.03,24.2219 L129.03,25.2216 L124.121,25.9477 L123.145,25.9477 L123.238,23.7668 L122.993,23.736 C121.835,25.5847 120.035,26.1599 118.266,26.1599 C114.942,26.1599 112.167,23.4345 112.167,18.4973 C112.167,14.1047 115.187,10.5918 119.456,10.5918 C120.6,10.5918 121.573,10.9381 122.099,11.1726 L122.099,12.4851 C121.669,12.2477 120.842,11.8652 120.097,11.8652 C116.804,11.8652 115.949,15.2888 115.949,18.0142 C115.949,21.5886 117.718,23.588 120.159,23.588 C122.476,23.588 123.055,22.4683 123.055,21.1949 L123.055,8.01991 L123.052,8.01991 Z" id="Shape" fill="#303439"></path>
                <path d="M133.909,17.9529 C133.909,21.9518 136.257,23.7976 138.636,23.7976 C140.315,23.7976 141.898,23.0101 142.508,21.9211 L143.24,22.8007 C141.805,25.4061 139.244,26.1629 136.958,26.1629 C133.451,26.1629 130.125,23.8618 130.125,18.4695 C130.125,13.8368 133.479,10.5947 137.261,10.5947 C141.378,10.5947 143.453,13.4431 143.453,16.593 L143.453,17.319 L134.913,17.2939 L134.905,16.0513 L139.609,16.0457 C139.671,13.5324 139.061,11.8067 137.109,11.8067 C135.158,11.8067 134.151,13.4431 133.999,16.1378 C133.999,16.135 133.909,17.4698 133.909,17.9529 Z" id="Shape" fill="#303439"></path>
                <path d="M158.132,23.1638 C158.68,24.0128 159.169,24.3143 160.266,24.6187 L160.997,24.831 L160.997,25.8614 L157.581,25.7106 L152.885,25.8614 L152.885,24.831 L154.012,24.6187 C154.409,24.5573 154.561,24.3171 154.561,24.1049 C154.561,23.8312 154.347,23.4682 154.133,23.1359 L151.968,19.8659 C150.992,21.0779 150.382,21.9854 149.924,22.6221 C149.252,23.5604 149.223,23.8033 149.223,23.9234 C149.223,24.2557 149.527,24.4987 150.137,24.6494 L150.868,24.831 L150.868,25.8614 L147.362,25.7106 L144.494,25.8614 L144.494,24.831 L145.225,24.6494 C146.321,24.3758 147.145,23.8312 147.604,23.256 C147.604,23.256 149.252,21.2873 151.234,18.7433 L147.758,13.6554 C147.241,12.9601 146.844,12.6864 145.99,12.3541 L145.045,11.9911 L145.045,10.9607 L149.041,11.1115 L153.157,10.9607 L153.157,11.9911 L152.12,12.2033 C151.633,12.2955 151.448,12.5356 151.448,12.7786 C151.448,13.0215 151.6,13.3231 151.813,13.6582 L158.132,23.1638 Z M154.324,15.9117 C155.12,14.8338 155.967,13.5912 155.967,13.5912 C156.211,13.1974 156.27,12.9545 156.27,12.8037 C156.27,12.4407 156.118,12.3178 155.508,12.167 L154.684,11.9855 L154.684,10.9551 L157.763,11.1059 L160.722,10.9551 L160.722,11.9855 L160.111,12.1977 C159.074,12.5608 158.374,12.9238 157.763,13.6526 C157.763,13.6526 156.425,15.3114 155.053,16.9896 L154.324,15.9117 Z" id="Shape" fill="#303439"></path>
            </g>
        </g>
    </g>
</svg>